inDegrees=no
num_controls=7
num_derivatives=13
num_iterations=118
num_multipliers=7
num_parameters=0
num_slacks=7
num_states=26
objective=0.445707
objective_accelerations=0.057249
objective_balance=0.003532
objective_effort=0.022882
objective_height=0.356481
objective_ligament=0.005563
solver_duration=1802.955187
status=Solve_Succeeded
success=true
DataType=double
version=3
OpenSimVersion=4.5
endheader
time	/jointset/ground_pelvis/pelvis_tilt/value	/jointset/ground_pelvis/pelvis_tx/value	/jointset/ground_pelvis/pelvis_ty/value	/jointset/hip_l/hip_flexion_l/value	/jointset/hip_l/hip_adduction_l/value	/jointset/hip_l/hip_rotation_l/value	/jointset/back/lumbar_extension/value	/jointset/patellofemoral_l/patellar_flexion_l/value	/jointset/knee_l/knee_flexion_l/value	/jointset/knee_l/knee_adduction_l/value	/jointset/knee_l/knee_rotation_l/value	/jointset/ankle_l/ankle_angle_l/value	/jointset/subtalar_l/subtalar_angle_l/value	/jointset/ground_pelvis/pelvis_tilt/speed	/jointset/ground_pelvis/pelvis_tx/speed	/jointset/ground_pelvis/pelvis_ty/speed	/jointset/hip_l/hip_flexion_l/speed	/jointset/hip_l/hip_adduction_l/speed	/jointset/hip_l/hip_rotation_l/speed	/jointset/back/lumbar_extension/speed	/jointset/patellofemoral_l/patellar_flexion_l/speed	/jointset/knee_l/knee_flexion_l/speed	/jointset/knee_l/knee_adduction_l/speed	/jointset/knee_l/knee_rotation_l/speed	/jointset/ankle_l/ankle_angle_l/speed	/jointset/subtalar_l/subtalar_angle_l/speed	/forceset/tau_hip_flexion_l	/forceset/tau_hip_adduction_l	/forceset/tau_hip_rotation_l	/forceset/tau_knee_flexion_l	/forceset/tau_ankle_angle_l	/forceset/tau_subtalar_angle_l	/forceset/tau_lumbar_extension	lambda_cid13_p0	lambda_cid13_p1	lambda_cid13_p2	lambda_cid13_p3	lambda_cid13_p4	lambda_cid13_p5	lambda_cid14_p0	/jointset/ground_pelvis/pelvis_tilt/accel	/jointset/ground_pelvis/pelvis_tx/accel	/jointset/ground_pelvis/pelvis_ty/accel	/jointset/hip_l/hip_flexion_l/accel	/jointset/hip_l/hip_adduction_l/accel	/jointset/hip_l/hip_rotation_l/accel	/jointset/back/lumbar_extension/accel	/jointset/patellofemoral_l/patellar_flexion_l/accel	/jointset/knee_l/knee_flexion_l/accel	/jointset/knee_l/knee_adduction_l/accel	/jointset/knee_l/knee_rotation_l/accel	/jointset/ankle_l/ankle_angle_l/accel	/jointset/subtalar_l/subtalar_angle_l/accel	gamma_cid13_p0	gamma_cid13_p1	gamma_cid13_p2	gamma_cid13_p3	gamma_cid13_p4	gamma_cid13_p5	gamma_cid14_p0
1.5	-0.3681114849725964	-0.02242822062395838	0.7626026809577257	1.101336475871791	-0.4367150599782126	-0.212351281688563	-0.2246961686904386	0.8005159342654596	0.8005159342654597	-0.1365336602775678	-0.1468797221698106	0.1276537163946148	-0.02166384870043336	0.6764230652054614	0.2784007196630757	0.5301038922994398	-2.454346083813983	0.2122498429415755	-0.7322015633389398	0.3161554511455106	-2.002473467965367	-2.002473467965368	-0.1116023175812678	0.1300359367623161	-0.3886598232442008	0.04624627185754547	-0.1762873373848856	0.03056964854447355	-0.0074318467957791	-0.1987755025796817	0.03554988271992818	0.04335683791547044	0.1693757429951994	-20.76021498126621	-18.22905156731255	6.036009878917014	-5.852758086836489	-520.0672599874424	-61.50159246407132	-25.19711359060654	0.6919525899657122	0.6706467880769454	-0.5193126855907397	-1.265428171055897	0.725623404684966	0.002736759793677906	1.444161202083978	-1.32291913303154	-1.322919133031536	-0.0001040603401793044	0.3367153643228851	-0.5374962591878812	0.50533548195184	4.7591259551046e-07	7.870688025673658e-07	-2.41160431638229e-06	-6.725405452311563e-09	6.518737467691897e-07	-9.671523460533129e-09	4.550427961313346e-07
1.51	-0.361312682232542	-0.01961099453893256	0.7678766724097149	1.076731530151207	-0.4345578747589314	-0.2196712850880026	-0.221463599458783	0.7804274510480805	0.7804274510480806	-0.1376531057493614	-0.1455633812027408	0.1237404341075082	-0.02117801881889476	0.6832437598465586	0.2850039501914947	0.5245794166218889	-2.466295703007229	0.2191558416398275	-0.7316773988043999	0.330331373561191	-2.014933099002702	-2.014933099002702	-0.1122944196990432	0.1332344868871936	-0.3939277910071831	0.05091179793416052	-0.1706043934682127	0.0301219499500722	-0.007053937321459987	-0.1952990278439197	0.03468031445779935	0.04256420536751238	0.1647282596079763	-20.82297559009337	-17.88165636950693	5.989573209865776	-5.477955349938646	-516.0729750058488	-61.5586821072	-26.10337690571055	0.6631025684864507	0.6490934931563552	-0.5861404878194704	-1.10758219507116	0.6684993889994125	0.09587967675903245	1.400254517645795	-1.164054768149667	-1.164054768149502	-0.1048154605663966	0.3113583130164321	-0.5110987597288753	0.4460416870512325	4.412561176503132e-07	9.121895975924269e-07	-2.077717031695229e-06	4.51690814358627e-08	6.233873087844826e-07	7.336873693070795e-08	4.22526798257366e-07
1.52	-0.3544484776126156	-0.01672894968703615	0.7730919940091321	1.052017517558368	-0.4323325472953469	-0.2269823221668019	-0.2180900816517033	0.7602230575845151	0.7602230575845152	-0.1387796826769469	-0.144215068039133	0.1197765417977968	-0.02064575757328304	0.6895034411798443	0.291364473037193	0.5183699217850495	-2.476159458264963	0.2258782918022433	-0.7304082992108643	0.3443451662302999	-2.025655517202644	-2.025655517202643	-0.1130286087396254	0.1364303760699207	-0.3987818277651842	0.05553254467217135	-0.1649214495515398	0.02967425135567086	-0.006676027847140986	-0.1918225531081574	0.03381074619567053	0.04177157281955433	0.1600807762207535	-20.8894592086127	-17.53738307717708	5.947946289168262	-5.134617947463466	-512.1500829806693	-61.6680533676617	-27.00927448040811	0.5797499284033586	0.6221052515328037	-0.656316517448438	-0.8482553839535988	0.6889136975177205	0.1517237715928854	1.411735252769639	-0.9754765655529044	-0.9754765655529045	-0.008521444901534253	0.3361831758927732	-0.4547100581916345	0.496379614230994	4.24956190320936e-07	1.053660667379408e-06	-1.856394525244424e-06	8.785718891036105e-08	6.196534427293797e-07	1.49274235310306e-07	4.073264328327569e-07
1.53	-0.3475245379446478	-0.01378460895387187	0.7782419194133989	1.027215129971057	-0.4300409736575932	-0.2342778184041212	-0.2145777188980181	0.7399199036394192	0.7399199036394192	-0.1399134607401591	-0.1428353306237815	0.1157660380979902	-0.02006763429343449	0.6951765090482105	0.2974526446622686	0.511510004990897	-2.483962689590376	0.2324047314407285	-0.7285968853484641	0.3580618753131015	-2.034695189650154	-2.034695189650153	-0.1137167455574063	0.1395072326545146	-0.4032575317579791	0.06008095132417695	-0.158851929266953	0.02870239603408157	-0.006333683428757542	-0.1889811251921494	0.03352557457659221	0.0408950012197826	0.1550899302509999	-20.78528032369737	-17.18531821036831	5.903683882980323	-4.802335094343509	-508.3770278232265	-61.82800340708689	-27.91489001012846	0.5449092951564617	0.5945464539934736	-0.7164715120456413	-0.6930199710542413	0.6297987204395628	0.2103355441108446	1.341812356986749	-0.8262827065362455	-0.826282706536301	-0.09727217737395999	0.2915872935823103	-0.4347564046137307	0.4323881564615629	4.281600979305016e-07	1.212503904100928e-06	-1.754672095669639e-06	1.207635182578288e-07	6.422191843494809e-07	2.175990490525333e-07	4.10523926885592e-07
1.54	-0.3405471027821756	-0.01078091183725713	0.7833201171993949	1.002345377477649	-0.4276850776987695	-0.2415523034327071	-0.2109301543293145	0.7195347389454109	0.7195347389454108	-0.1410537826469805	-0.1414251945638161	0.1117126261912977	-0.01944436355391063	0.7002025400807051	0.3032357497272852	0.5040243981308656	-2.489632439484554	0.2387427560162393	-0.7262060574641731	0.3713855292339566	-2.042057666985114	-2.042057666985113	-0.1143373774614911	0.1425101049926928	-0.4073634691423854	0.06456203660723139	-0.1527824089823663	0.02773054071249227	-0.00599133901037408	-0.1861396972761414	0.03324040295751389	0.04001842962001086	0.1500990842812462	-20.68297938486891	-16.83636269330732	5.863845630599212	-4.505994985337564	-504.6471573915001	-62.03621949251644	-28.82101763288227	0.4503425612290436	0.5610919395209749	-0.7814545306241865	-0.4215590977065509	0.651230684922826	0.267606575971048	1.333124220380344	-0.6400375430429216	-0.6400375430429216	0.004979537837682221	0.3213863266096279	-0.3807567365137904	0.4829153404407666	4.211551535700173e-07	1.38789721920194e-06	-1.606867980873727e-06	1.640707656307501e-07	6.48828575186018e-07	2.793484435067298e-07	4.095363535669652e-07
